<?xml version="1.0" standalone="no"?>
<!DOCTYPE svg PUBLIC "-//W3C//DTD SVG 20010904//EN"
 "http://www.w3.org/TR/2001/REC-SVG-20010904/DTD/svg10.dtd">
<svg version="1.0" xmlns="http://www.w3.org/2000/svg"
 width="960.000000pt" height="960.000000pt" viewBox="0 0 960.000000 960.000000"
 preserveAspectRatio="xMidYMid meet">
<metadata>
Created by potrace 1.11, written by Peter Selinger 2001-2013
</metadata>
<g transform="translate(0.000000,960.000000) scale(0.100000,-0.100000)"
fill="#000000" stroke="none">
<path d="M0 4800 l0 -4760 4800 0 4800 0 0 1715 c0 1589 -1 1715 -17 1715 -15
0 -15 1 0 18 16 17 17 171 17 2007 0 1704 -2 1986 -14 1976 -11 -9 -15 -9 -20
1 -3 7 -3 -2 0 -21 7 -38 -13 -215 -28 -247 -5 -11 -8 -24 -7 -30 1 -5 -1 -26
-5 -46 -9 -42 -26 -51 -26 -15 0 13 -7 32 -15 43 -19 25 -19 34 1 34 11 0 14
5 10 16 -3 9 -6 31 -6 50 0 22 -5 34 -14 34 -27 0 -66 93 -45 106 5 3 8 17 8
32 -1 27 -1 27 -9 -3 l-7 -30 -8 28 c-6 21 -12 26 -26 22 -13 -5 -19 -1 -19
10 0 8 -7 26 -15 39 -8 12 -15 38 -15 57 0 74 -8 101 -39 138 -44 51 -51 62
-51 87 0 22 -29 54 -48 54 -17 0 -9 -35 13 -60 18 -20 18 -20 -3 -20 -12 0
-22 4 -22 8 0 5 -9 18 -21 30 -11 12 -17 27 -14 32 4 6 -4 19 -17 30 -26 22
-12 26 27 8 21 -9 28 -9 34 1 5 8 17 11 30 6 28 -8 42 22 18 40 -11 8 -17 26
-17 49 0 23 -5 39 -15 42 -15 6 -49 58 -60 95 -8 23 -7 23 19 6 26 -17 26 -17
26 6 0 27 -17 47 -40 47 -29 0 -50 34 -49 76 1 21 3 31 6 22 2 -10 13 -18 24
-18 27 0 24 -20 -3 -21 -17 -1 -18 -3 -6 -6 9 -2 33 0 52 5 33 10 36 8 50 -18
8 -17 10 -30 4 -32 -18 -6 3 -36 22 -31 11 3 32 2 46 -1 20 -5 24 -10 15 -19
-6 -6 -11 -15 -11 -19 0 -13 27 -9 40 7 10 12 6 21 -19 52 -17 21 -31 46 -31
56 0 10 -7 20 -15 22 -8 3 -23 8 -32 12 -10 3 -21 5 -26 5 -4 -1 -7 2 -7 6 0
5 -9 19 -20 32 -21 25 -27 89 -10 106 6 6 6 21 1 42 -11 36 -10 37 36 20 31
-11 38 -22 35 -60 -1 -9 5 -19 13 -22 9 -3 12 0 8 9 -3 8 2 18 11 21 23 9 20
28 -9 50 -38 29 -33 46 13 38 40 -7 68 -27 77 -54 3 -10 15 -20 27 -23 13 -4
19 -11 15 -21 -3 -8 1 -17 8 -20 8 -3 12 -11 10 -18 -3 -7 9 -28 25 -47 17
-18 29 -40 26 -48 -3 -8 -1 -11 4 -8 6 4 10 -6 10 -22 0 -65 12 -103 32 -103
11 0 17 -4 13 -9 -4 -8 35 -94 49 -108 2 -2 4 39 5 92 1 94 0 98 -32 138 -17
23 -36 45 -40 48 -4 3 -9 19 -10 35 -2 22 2 28 15 26 9 -1 19 2 23 8 3 5 3 10
-2 10 -4 0 -14 4 -22 9 -12 8 -12 12 -2 25 12 14 9 17 -16 22 -20 4 -30 12
-29 22 1 11 -8 18 -24 20 -54 6 -66 12 -84 47 -11 19 -24 35 -31 35 -7 0 -17
18 -24 40 -14 48 -28 58 -46 34 -7 -11 -17 -16 -21 -12 -4 4 -2 14 5 22 9 11
4 28 -24 81 -25 48 -33 75 -29 94 6 26 6 26 -13 -4 -22 -33 -63 -146 -63 -171
0 -9 -6 -28 -14 -42 -8 -15 -26 -79 -40 -142 -37 -157 -57 -224 -73 -233 -9
-6 -10 -13 -4 -25 6 -11 6 -35 0 -62 -5 -25 -14 -71 -20 -102 -6 -32 -14 -58
-19 -58 -13 0 -50 56 -50 76 0 23 -49 86 -61 79 -5 -4 -9 2 -9 12 0 10 -9 29
-20 43 -11 14 -20 38 -20 54 0 35 -9 30 -12 -7 -2 -20 -5 -23 -15 -15 -7 6
-13 17 -13 24 0 7 -23 57 -50 111 -49 95 -50 100 -44 159 5 48 3 64 -8 70 -16
10 -58 96 -58 119 0 23 34 18 45 -7 7 -16 20 -24 42 -26 28 -3 32 1 43 32 11
33 13 34 37 23 22 -10 28 -8 45 13 12 14 24 24 29 23 11 -3 49 46 49 63 0 10
11 12 45 7 31 -4 45 -2 45 6 0 6 -5 10 -11 9 -6 -2 -14 3 -16 10 -3 7 1 10 9
7 8 -3 27 -1 42 5 22 8 26 13 17 24 -6 7 -8 16 -5 19 4 4 -1 18 -10 31 -15 24
-15 26 7 38 12 7 25 11 30 10 4 -1 7 4 7 11 0 18 -57 20 -64 2 -2 -7 -18 -16
-35 -20 -38 -8 -40 -30 -5 -62 29 -27 29 -27 -3 -37 -15 -5 -23 -3 -23 4 0 6
-4 9 -9 5 -5 -3 -12 4 -16 15 -9 28 -51 37 -75 15 -13 -12 -27 -15 -44 -11
-20 5 -28 1 -43 -24 -9 -17 -26 -30 -36 -30 -16 0 -18 -5 -13 -34 4 -19 2 -37
-3 -40 -5 -3 -8 2 -7 12 1 12 -6 17 -23 17 -30 0 -40 -22 -14 -32 23 -8 42
-33 42 -53 0 -9 -16 3 -38 28 -21 23 -44 42 -50 42 -7 0 -11 6 -9 13 2 7 -6
32 -17 56 l-19 44 22 15 c24 16 30 60 11 79 -23 23 11 24 43 2 26 -19 30 -20
25 -6 -4 10 -2 17 5 17 6 0 -6 14 -27 30 -21 16 -43 30 -50 30 -14 0 -25 -22
-25 -51 0 -27 -6 -25 -66 26 -34 29 -51 51 -47 60 7 19 23 19 23 1 0 -8 7 -16
15 -20 20 -7 20 18 0 38 -8 8 -15 28 -15 45 0 21 5 31 15 31 8 0 15 7 15 15 0
26 43 17 73 -15 16 -16 33 -30 38 -30 5 0 9 -15 9 -33 0 -21 11 -49 28 -73 33
-46 45 -74 32 -74 -6 0 -10 -9 -10 -20 0 -12 -7 -31 -16 -44 -14 -23 -14 -25
8 -40 21 -15 23 -15 29 1 10 34 38 88 39 76 0 -8 13 -13 30 -13 20 0 30 -5 30
-15 0 -8 6 -15 14 -15 23 0 13 24 -28 64 l-39 38 34 29 c19 16 28 29 20 29
-11 0 -10 4 3 19 17 19 15 41 -4 41 -5 0 -18 -9 -29 -21 -20 -22 -41 -19 -41
7 0 8 -5 14 -11 14 -5 0 -33 22 -60 49 -60 59 -72 106 -28 106 20 -1 31 8 45
33 10 18 23 31 30 28 7 -3 26 7 43 22 23 20 29 33 25 50 -4 12 -9 22 -13 22
-21 0 -81 -23 -81 -30 0 -6 -6 -10 -13 -10 -8 0 -20 -11 -27 -25 -7 -14 -22
-25 -33 -25 -15 0 -18 -5 -15 -25 7 -34 -4 -39 -32 -15 -27 23 -21 43 17 60
32 14 58 59 44 73 -6 6 -14 1 -20 -12 -7 -12 -20 -21 -31 -21 -10 0 -22 -5
-26 -11 -3 -6 -17 -8 -31 -4 -21 5 -24 3 -18 -15 12 -37 -31 -14 -54 28 -16
30 -7 41 11 13 7 -12 16 -21 20 -21 13 0 8 34 -7 54 -23 31 -19 65 9 76 13 5
27 14 31 19 9 16 -68 14 -84 -1 -11 -10 -14 -10 -18 0 -4 9 -254 12 -1204 12
-1059 0 -1199 -2 -1199 -15 0 -8 4 -15 9 -15 5 0 13 -15 16 -32 4 -18 13 -40
21 -49 11 -12 11 -21 2 -47 -10 -26 -10 -34 1 -44 11 -11 12 -8 7 16 -6 25 -5
28 12 24 13 -4 19 -1 18 10 0 8 4 17 10 19 11 4 34 -94 34 -147 0 -50 12 -120
21 -120 5 0 9 5 9 10 0 42 75 -78 86 -138 4 -20 12 -43 18 -51 6 -8 12 -58 12
-117 1 -78 6 -110 18 -129 9 -14 19 -45 22 -69 6 -41 4 -47 -26 -75 -32 -29
-32 -29 -9 -33 23 -3 24 -6 21 -60 -3 -48 -1 -58 12 -58 12 0 16 10 16 44 0
43 1 44 28 37 25 -7 27 -11 27 -62 0 -50 2 -54 23 -51 18 3 22 -2 22 -23 0
-22 -3 -24 -19 -15 -26 13 -31 13 -31 -5 0 -8 -5 -15 -10 -15 -6 0 -15 -10
-20 -22 -8 -22 -9 -21 -10 7 -1 28 -2 29 -10 7 -10 -23 -3 -52 14 -64 16 -10
46 22 46 48 0 26 19 42 29 25 4 -6 23 -10 42 -9 30 3 34 0 38 -22 3 -25 3 -25
-18 -6 -12 11 -21 14 -21 8 0 -16 -37 -15 -43 1 -4 7 -6 6 -6 -5 -1 -9 6 -23
14 -31 12 -12 12 -21 3 -47 -8 -26 -8 -34 3 -41 11 -6 11 -11 2 -20 -6 -6 -10
-17 -7 -23 2 -6 -9 -20 -25 -31 -17 -11 -33 -30 -36 -43 -4 -18 -10 -22 -25
-17 -14 5 -20 2 -20 -9 0 -9 4 -16 9 -16 5 0 12 -11 15 -25 5 -21 10 -24 26
-15 28 15 40 12 40 -9 0 -11 4 -21 10 -23 6 -2 6 -9 0 -17 -7 -12 -11 -12 -23
-2 -13 10 -16 8 -22 -9 -7 -22 9 -50 30 -50 8 0 10 -9 7 -25 -3 -17 1 -27 12
-31 13 -5 14 -9 5 -20 -6 -8 -8 -14 -3 -14 5 0 0 -7 -10 -15 -19 -15 -19 -15
-1 -28 10 -8 15 -19 12 -24 -4 -6 0 -16 8 -23 11 -9 13 -30 10 -94 -10 -172
-15 -198 -49 -230 -17 -16 -30 -34 -28 -40 2 -5 -4 -16 -14 -23 -12 -9 -15
-20 -10 -40 5 -19 4 -24 -3 -14 -8 12 -12 12 -25 2 -8 -7 -18 -21 -21 -32 -4
-10 -13 -19 -21 -19 -19 0 -18 -18 2 -22 13 -3 13 -5 0 -23 -16 -20 -16 -20
-22 3 -3 12 -10 22 -15 22 -12 0 -11 -57 1 -65 6 -3 10 -31 10 -61 0 -36 4
-53 10 -49 7 4 9 30 5 68 -6 55 -5 60 8 45 8 -10 21 -18 30 -18 23 0 52 -31
37 -40 -9 -6 -9 -13 1 -31 8 -13 15 -33 16 -44 5 -41 6 -75 2 -79 -2 -2 -24 0
-49 3 -25 4 -58 4 -75 0 -16 -4 -65 -15 -107 -24 -43 -9 -80 -21 -84 -26 -3
-5 -16 -9 -29 -9 -29 0 -92 -22 -157 -56 -27 -13 -57 -24 -67 -24 -11 0 -23
-4 -26 -10 -3 -5 3 -10 14 -10 10 0 21 -5 23 -12 6 -16 58 -1 58 17 0 16 16
20 24 7 8 -13 115 -3 165 15 33 12 69 14 155 11 61 -3 118 -8 126 -12 27 -11
43 -64 37 -122 -3 -30 -1 -56 4 -60 16 -10 -11 -34 -37 -34 -14 0 -32 -4 -42
-9 -23 -11 -151 -41 -178 -41 -11 0 -24 -3 -28 -7 -3 -4 -14 -8 -24 -9 -44 -5
-146 -34 -156 -45 -8 -9 -6 -10 12 -6 12 3 22 1 22 -4 0 -5 -5 -9 -12 -9 -9 0
-9 -3 -1 -11 8 -8 4 -18 -15 -37 -15 -13 -20 -22 -12 -18 8 3 23 9 33 12 9 4
17 13 17 20 0 8 5 14 10 14 6 0 10 -7 10 -16 0 -9 6 -14 13 -11 6 2 11 11 9
20 -2 11 2 15 13 11 8 -3 15 -10 15 -15 0 -10 37 -5 115 15 32 9 84 16 113 16
l55 0 -8 -42 c-4 -24 -13 -77 -19 -118 -11 -73 -12 -75 -38 -72 -15 1 -29 -2
-33 -8 -3 -5 -13 -10 -21 -10 -8 0 -39 -11 -68 -25 -29 -14 -77 -29 -107 -35
-76 -14 -106 -27 -169 -74 -79 -58 -140 -135 -140 -176 0 -10 -5 -22 -10 -25
-16 -10 -11 -86 8 -125 11 -22 24 -35 37 -35 12 0 19 -6 18 -15 -4 -22 50 -42
115 -43 42 0 74 7 119 27 73 33 88 32 69 -6 -9 -17 -10 -28 -4 -30 11 -4 -37
-29 -92 -48 -62 -21 -237 -24 -306 -6 -75 19 -74 19 -74 2 0 -19 10 -25 56
-31 22 -4 55 -10 74 -16 47 -12 187 -12 211 1 16 9 21 7 31 -14 12 -28 -2 -56
-28 -56 -8 0 -14 -4 -14 -10 0 -5 6 -10 14 -10 13 0 14 -13 7 -96 -1 -5 -11
-21 -23 -33 -19 -21 -20 -24 -5 -33 18 -10 23 -38 7 -38 -5 0 -10 5 -10 10 0
20 -31 10 -39 -13 -5 -13 -16 -29 -25 -36 -9 -7 -16 -22 -16 -33 0 -15 -5 -18
-20 -13 -11 3 -28 1 -37 -5 -16 -10 -15 -10 5 -5 16 5 22 2 22 -9 0 -9 -7 -16
-15 -16 -8 0 -15 -6 -15 -12 -1 -20 -47 -71 -58 -64 -24 15 -41 -5 -35 -41 6
-34 5 -35 -15 -24 -12 6 -25 23 -28 36 -10 39 -27 30 -21 -10 3 -19 1 -37 -4
-41 -6 -4 -6 -10 1 -19 8 -9 5 -14 -10 -18 -16 -4 -20 -14 -21 -54 -1 -36 -3
-42 -8 -23 -4 14 -15 26 -24 28 -19 4 -22 -12 -7 -31 6 -7 17 -21 25 -32 14
-19 16 -19 29 -3 12 17 14 17 28 0 8 -9 18 -23 23 -30 9 -17 -32 -62 -51 -55
-8 3 -15 -5 -19 -24 -9 -40 -45 -109 -77 -146 -16 -17 -28 -35 -28 -41 0 -17
-39 -38 -59 -31 -14 4 -17 -1 -18 -28 -1 -37 -42 -123 -86 -179 -15 -21 -26
-42 -23 -46 3 -5 -10 -21 -29 -37 -19 -15 -35 -33 -35 -41 0 -8 -7 -14 -15
-14 -8 0 -15 -9 -15 -20 0 -11 -7 -20 -15 -20 -9 0 -12 -6 -9 -15 4 -8 2 -15
-4 -15 -5 0 -13 -11 -16 -25 -4 -14 -13 -25 -21 -25 -8 0 -15 -7 -15 -15 0 -8
-6 -15 -13 -15 -7 0 -18 -9 -25 -20 -7 -11 -19 -20 -28 -20 -10 0 -14 -6 -11
-14 4 -10 1 -13 -8 -9 -8 3 -18 -2 -21 -11 -3 -9 -10 -13 -15 -10 -5 3 -9 1
-9 -3 0 -12 -76 -43 -145 -60 -40 -9 -80 -12 -120 -7 -131 14 -362 0 -458 -28
-123 -36 -182 -8 -299 145 -34 43 -107 70 -257 92 -93 14 -109 19 -162 57
-112 78 -165 191 -193 408 -26 200 -29 211 -96 274 -35 32 -62 67 -65 83 -3
15 -10 44 -15 64 -6 20 -10 46 -10 58 0 12 -4 19 -10 16 -6 -3 -10 -1 -10 4 0
6 5 11 11 11 6 0 8 8 5 18 -7 21 -15 117 -20 228 -2 45 -8 90 -14 100 -11 22
-22 74 -28 128 l-4 39 25 -23 c14 -13 25 -31 25 -39 0 -9 11 -40 23 -69 23
-56 26 -59 172 -139 89 -49 193 -91 275 -112 78 -20 97 -28 230 -96 36 -19 75
-34 86 -34 12 -1 32 -9 45 -20 56 -43 105 -64 169 -69 36 -2 77 -11 92 -18 15
-8 85 -19 156 -25 122 -11 132 -10 185 10 31 11 65 26 76 33 16 10 27 9 56 -5
59 -28 101 -22 210 33 131 65 211 143 275 267 25 48 55 99 67 112 24 27 73
123 73 144 0 30 -45 37 -114 16 -36 -11 -66 -24 -66 -28 0 -10 -98 -43 -170
-57 -8 -1 -41 -9 -73 -18 -92 -23 -272 -39 -346 -30 -36 4 -73 9 -81 9 -8 1
-22 4 -30 8 -29 12 -96 27 -161 37 -37 5 -87 19 -113 29 -36 16 -52 18 -73 10
-15 -5 -68 -18 -117 -29 -269 -55 -335 -58 -420 -16 -71 35 -184 129 -259 214
-44 51 -72 73 -116 92 -64 28 -103 58 -143 111 -15 20 -58 69 -97 109 -38 40
-86 101 -106 136 -28 48 -43 64 -59 64 -12 0 -35 13 -50 29 -16 17 -64 54
-107 83 -49 33 -77 58 -74 66 4 10 -1 11 -17 6 -19 -6 -21 -4 -12 7 61 80 71
646 13 784 -15 37 -16 39 -19 68 -2 18 -3 19 -7 4 -3 -12 -10 -16 -24 -12 -14
5 -19 1 -21 -12 -3 -35 3 -68 20 -118 18 -55 19 -62 20 -340 1 -205 -7 -247
-54 -270 -12 -6 -29 -17 -38 -24 -11 -9 -16 -10 -16 -2 0 6 5 11 12 11 9 0 8
3 -1 13 -11 10 -14 10 -18 0 -3 -7 -9 -13 -14 -13 -11 0 -1 73 16 112 11 28 8
69 -13 193 -6 33 -16 101 -22 150 -12 98 -29 165 -41 165 -4 0 -10 14 -14 31
-4 17 -14 42 -22 57 l-15 27 5 -40 c5 -34 4 -36 -5 -17 -6 12 -17 22 -25 22
-16 0 -16 0 1 -41 16 -39 23 -110 32 -299 3 -74 8 -138 10 -142 3 -4 2 -18 -1
-31 -5 -17 -14 -24 -30 -24 -17 0 -22 4 -18 15 4 10 2 13 -5 8 -8 -5 -12 0
-12 12 0 11 -7 22 -15 26 -8 3 -15 10 -15 16 0 6 5 8 10 5 6 -3 10 -2 10 4 0
5 -4 13 -10 16 -5 3 -10 36 -10 73 0 74 -9 113 -47 217 -27 72 -42 92 -55 73
-8 -14 -4 -47 11 -103 9 -35 16 -121 12 -149 -3 -23 -39 34 -50 79 -7 27 -16
54 -21 60 -37 44 -105 362 -85 395 11 17 55 -43 55 -75 0 -9 6 -26 14 -38 8
-12 22 -46 31 -74 10 -29 21 -53 26 -53 15 0 10 29 -13 73 -12 23 -21 46 -19
51 1 5 -5 23 -13 40 -68 136 -78 170 -73 235 4 52 9 68 28 83 13 9 30 16 37
13 17 -6 15 2 -9 42 l-21 34 28 109 c21 79 33 110 44 110 12 0 15 14 16 62 1
35 8 99 17 143 32 156 36 202 34 368 -2 146 0 167 13 163 73 -24 90 -32 90
-38 0 -5 6 -8 14 -8 9 0 12 -8 9 -24 -3 -13 0 -27 6 -30 6 -4 11 -15 11 -24 0
-15 -2 -15 -11 -2 -8 11 -9 7 -5 -19 4 -19 13 -42 22 -52 8 -9 22 -55 29 -100
13 -78 50 -169 67 -169 5 0 8 -5 8 -12 0 -6 11 -26 25 -44 28 -37 31 -50 13
-57 -8 -3 -5 -6 5 -6 10 -1 16 -5 12 -10 -6 -11 42 -51 63 -51 17 0 79 -50
167 -137 59 -58 114 -92 175 -108 14 -4 39 -13 56 -21 52 -23 146 -44 202 -45
45 -1 60 4 105 35 52 36 117 98 117 111 0 3 11 21 25 39 14 18 25 37 25 42 0
4 16 45 35 90 19 45 40 108 45 140 15 85 42 164 57 164 23 0 14 18 -23 49 -36
29 -67 43 -194 83 -94 30 -144 51 -155 65 -7 10 -19 11 -41 4 -22 -6 -50 -4
-90 5 -33 8 -71 16 -85 18 -14 2 -48 11 -75 20 -27 9 -87 27 -134 41 -154 44
-220 68 -220 83 0 9 -7 11 -21 7 -11 -4 -35 0 -52 8 -18 8 -47 14 -66 12 -26
-1 -35 2 -39 17 -4 16 -12 18 -51 16 -27 -2 -46 -8 -46 -15 0 -6 -3 -14 -7
-18 -4 -4 -4 -13 -1 -21 4 -10 -4 -12 -32 -9 -20 3 -41 8 -46 11 -17 10 -9 89
20 199 15 61 31 135 35 165 6 51 43 200 102 413 13 48 24 94 24 102 0 13 -149
15 -1145 15 l-1145 0 0 -4760z m8408 4562 c2 -7 -2 -10 -12 -6 -9 3 -16 11
-16 16 0 13 23 5 28 -10z m52 -102 c24 -13 15 -43 -11 -35 -12 4 -21 -1 -29
-15 -13 -25 -30 -17 -30 13 0 17 2 19 9 8 8 -12 11 -9 16 12 8 29 16 32 45 17z
m-2290 -41 c0 -5 -4 -9 -10 -9 -5 0 -10 7 -10 16 0 8 5 12 10 9 6 -3 10 -10
10 -16z m2221 -186 c0 -15 2 -15 9 2 7 17 9 16 9 -11 1 -16 8 -39 16 -50 32
-42 5 -62 -29 -22 -29 33 -45 69 -39 84 7 20 33 17 34 -3z m134 -220 c20 8 16
-55 -5 -75 -25 -23 -34 -23 -27 2 3 11 -3 30 -14 44 -10 13 -19 31 -19 39 0
23 23 26 39 5 7 -11 19 -17 26 -15z m320 11 c21 -14 23 -19 12 -37 -7 -12 -13
-24 -14 -26 -1 -1 -8 1 -15 5 -29 18 -39 13 -33 -17 5 -23 4 -28 -9 -23 -16 6
-36 54 -36 87 0 16 2 17 16 7 12 -11 18 -10 32 3 20 21 17 21 47 1z m-2542
-54 c17 -20 11 -25 -17 -14 -16 6 -23 34 -8 34 4 0 15 -9 25 -20z m79 -72 c-7
-7 -12 -8 -12 -2 0 14 12 26 19 19 2 -3 -1 -11 -7 -17z m2853 -68 c-3 -5 -13
-10 -21 -10 -8 0 -12 5 -9 10 3 6 13 10 21 10 8 0 12 -4 9 -10z m-14 -52 c10
-18 9 -20 -6 -15 -9 4 -19 7 -21 7 -2 0 -4 7 -4 15 0 22 18 18 31 -7z m66 0
c-3 -8 -6 -5 -6 6 -1 11 2 17 5 13 3 -3 4 -12 1 -19z m-22 -58 c3 -5 2 -10 -4
-10 -5 0 -13 5 -16 10 -3 6 -2 10 4 10 5 0 13 -4 16 -10z m-2855 -22 c0 -19
-2 -20 -10 -8 -13 19 -13 30 0 30 6 0 10 -10 10 -22z m40 -123 c0 -8 -7 -15
-15 -15 -9 0 -12 6 -9 15 4 8 10 15 15 15 5 0 9 -7 9 -15z m3060 -25 c0 -5 -4
-10 -9 -10 -6 0 -13 5 -16 10 -3 6 1 10 9 10 9 0 16 -4 16 -10z m-3045 -60 c3
-5 -3 -10 -15 -10 -12 0 -18 5 -15 10 3 6 10 10 15 10 5 0 12 -4 15 -10z m20
-71 c-8 -12 -32 -12 -40 1 -11 18 5 31 26 20 11 -6 17 -15 14 -21z m-3746 -24
c3 -17 2 -17 -13 -3 -19 20 -21 31 -3 26 6 -3 14 -13 16 -23z m3747 -41 c2
-35 -10 -62 -20 -45 -4 6 -2 11 5 11 10 0 10 3 1 12 -7 7 -12 23 -12 36 0 35
25 22 26 -14z m2234 -7 c0 -5 9 -22 20 -37 16 -23 18 -34 10 -54 -9 -23 -22
-37 -18 -18 1 4 -4 21 -11 37 -26 61 -38 104 -32 110 6 7 31 -23 31 -38z m79
-27 l0 -25 -15 28 c-8 15 -12 32 -8 38 9 16 24 -10 23 -41z m-2402 -52 c-3 -8
-6 -5 -6 6 -1 11 2 17 5 13 3 -3 4 -12 1 -19z m2477 -14 c9 -8 16 -29 16 -46
0 -21 11 -43 36 -70 33 -37 35 -42 29 -86 -9 -67 -15 -84 -28 -79 -7 2 -16 13
-22 25 -5 12 -17 20 -29 19 -15 -2 -23 8 -33 43 -12 40 -11 46 4 58 16 11 16
13 0 25 -10 6 -20 29 -24 50 -5 35 -4 37 23 38 17 1 22 3 12 6 -10 2 -18 11
-18 19 0 18 15 18 34 -2z m-5998 -25 c51 -27 54 -30 24 -24 -40 8 -86 30 -95
45 -11 17 11 11 71 -21z m5874 -41 c0 -19 -2 -20 -10 -8 -13 19 -13 30 0 30 6
0 10 -10 10 -22z m387 -88 c-6 -11 -17 -20 -23 -20 -12 0 -12 28 -1 47 5 7 4
21 -1 30 -5 10 -7 25 -4 33 3 9 12 -1 23 -28 15 -35 16 -47 6 -62z m-2702 -10
c3 -5 -1 -10 -10 -10 -9 0 -13 5 -10 10 3 6 8 10 10 10 2 0 7 -4 10 -10z
m2645 -5 c0 -8 -4 -15 -10 -15 -5 0 -10 7 -10 15 0 8 5 15 10 15 6 0 10 -7 10
-15z m-433 -37 c-3 -8 -6 -5 -6 6 -1 11 2 17 5 13 3 -3 4 -12 1 -19z m-129 -7
c3 -8 -1 -12 -9 -9 -7 2 -15 10 -17 17 -3 8 1 12 9 9 7 -2 15 -10 17 -17z m72
-87 c30 -60 31 -76 6 -55 -8 7 -17 8 -20 3 -7 -11 30 -71 48 -78 10 -4 12 -14
6 -40 -10 -43 -14 -48 -35 -40 -11 4 -15 17 -14 43 2 21 -2 47 -8 58 -20 38
-32 90 -26 116 2 15 0 30 -6 33 -7 4 -11 -1 -11 -13 0 -12 -4 -21 -10 -21 -11
0 -12 6 -4 37 11 41 43 22 74 -43z m147 24 c-3 -8 -6 -5 -6 6 -1 11 2 17 5 13
3 -3 4 -12 1 -19z m443 -74 c0 -19 -2 -34 -4 -34 -4 0 -36 58 -36 64 0 1 9 2
20 3 16 1 20 -4 20 -33z m-8428 -16 c-9 -9 -12 -7 -12 12 0 19 3 21 12 12 9
-9 9 -15 0 -24z m8015 10 c-3 -8 -6 -5 -6 6 -1 11 2 17 5 13 3 -3 4 -12 1 -19z
m123 -36 c0 -12 7 -25 15 -28 24 -9 18 -34 -8 -34 -21 0 -24 5 -25 42 -1 23
-5 51 -8 63 -6 20 -6 20 10 0 8 -11 16 -30 16 -43z m-523 6 c-3 -7 -5 -2 -5
12 0 14 2 19 5 13 2 -7 2 -19 0 -25z m723 -8 c0 -5 -2 -10 -4 -10 -3 0 -8 5
-11 10 -3 6 -1 10 4 10 6 0 11 -4 11 -10z m-540 -76 c0 -14 -4 -22 -10 -19 -5
3 -10 17 -10 31 0 14 4 22 10 19 6 -3 10 -17 10 -31z m107 -21 c-3 -10 -5 -4
-5 12 0 17 2 24 5 18 2 -7 2 -21 0 -30z m220 -5 c-3 -8 -6 -5 -6 6 -1 11 2 17
5 13 3 -3 4 -12 1 -19z m-21 -33 c-4 -17 2 -33 20 -54 14 -17 21 -31 15 -31
-6 0 -11 -19 -11 -45 0 -25 -4 -45 -10 -45 -5 0 -10 10 -10 23 0 12 -7 53 -15
90 -14 68 -12 102 7 91 5 -3 7 -17 4 -29z m-161 -48 c1 -19 5 -39 9 -46 4 -6
5 -15 2 -20 -3 -5 1 -14 9 -21 8 -7 12 -16 9 -21 -7 -12 -44 34 -44 55 0 9 -4
16 -10 16 -11 0 -14 49 -4 75 10 25 27 2 29 -38z m-105 -22 c6 -3 10 -15 10
-26 0 -10 4 -19 8 -19 5 0 17 -8 28 -17 11 -10 29 -23 40 -29 14 -9 19 -23 19
-55 0 -28 5 -43 12 -42 18 4 15 -123 -3 -138 -10 -8 -11 -16 -4 -29 13 -23 13
-70 1 -70 -11 0 -18 51 -20 139 -1 69 -7 84 -21 61 -8 -12 -10 -11 -10 6 0 11
-4 24 -9 30 -5 5 -11 20 -13 34 -2 14 -10 25 -18 25 -8 0 -15 8 -15 17 0 9
-10 27 -23 40 -25 27 -28 44 -9 52 10 5 10 7 0 12 -14 6 -17 33 -6 60 6 15 8
13 15 -13 5 -18 13 -35 18 -38z m310 37 c0 -15 -2 -15 -10 -2 -13 20 -13 33 0
25 6 -3 10 -14 10 -23z m-494 -79 c-3 -49 -6 -101 -7 -118 -1 -30 -1 -30 -9
-5 -4 14 -8 39 -9 55 -1 24 1 27 10 15 8 -11 9 6 5 63 -4 52 -2 77 5 77 8 0 9
-27 5 -87z m842 41 c-3 -14 -5 -12 -10 9 -3 19 -2 25 4 19 6 -6 8 -18 6 -28z
m-118 -9 c0 -5 -5 -3 -10 5 -5 8 -10 20 -10 25 0 6 5 3 10 -5 5 -8 10 -19 10
-25z m-49 -12 c6 -16 16 -35 24 -43 16 -19 21 -56 10 -93 -11 -41 -23 -21 -29
51 -3 35 -12 75 -21 88 -8 13 -11 24 -5 24 6 0 15 -12 21 -27z m189 -36 c0 -5
-4 -5 -10 -2 -5 3 -10 14 -10 23 0 15 2 15 10 2 5 -8 10 -19 10 -23z m-710
-73 c0 -15 -6 -24 -15 -24 -17 0 -18 4 -9 37 8 29 24 20 24 -13z m496 -69 c12
-18 12 -28 3 -49 -10 -20 -10 -29 -1 -38 16 -16 15 -28 -3 -28 -10 0 -15 10
-15 29 0 16 -5 31 -10 33 -6 2 -13 28 -16 58 -4 40 -3 51 5 40 8 -12 11 -8 13
20 l1 35 4 -39 c3 -21 11 -49 19 -61z m-179 53 c-3 -8 -6 -5 -6 6 -1 11 2 17
5 13 3 -3 4 -12 1 -19z m446 -8 c3 -11 1 -23 -4 -26 -5 -3 -9 6 -9 20 0 31 6
34 13 6z m111 4 c10 -25 -1 -29 -14 -5 -6 12 -7 21 -1 21 5 0 12 -7 15 -16z
m-67 -51 c-3 -10 -5 -2 -5 17 0 19 2 27 5 18 2 -10 2 -26 0 -35z m-187 -11 c0
-12 -3 -13 -11 -5 -6 6 -17 10 -23 9 -6 -2 -8 -1 -3 1 4 3 7 12 7 20 0 13 3
13 15 3 8 -7 15 -20 15 -28z m-565 -14 c5 -21 4 -33 -4 -36 -6 -2 -11 -10 -11
-18 0 -21 -13 -16 -34 12 -15 21 -16 28 -6 34 7 5 19 6 27 3 7 -3 13 0 13 6 0
6 -4 11 -10 11 -5 0 -10 5 -10 10 0 25 29 7 35 -22z m365 10 c0 -18 -2 -20 -9
-8 -6 8 -7 18 -5 22 9 14 14 9 14 -14z m370 -14 c0 -8 -4 -12 -10 -9 -5 3 -10
10 -10 16 0 5 5 9 10 9 6 0 10 -7 10 -16z m-360 -45 c0 -10 -7 -19 -15 -19
-16 0 -19 9 -9 34 8 20 24 11 24 -15z m372 -31 c-10 -10 -10 -8 -2 37 1 6 4 2
7 -9 3 -10 0 -23 -5 -28z m-6887 12 c-3 -5 -14 -10 -23 -9 -14 0 -13 2 3 9 27
11 27 11 20 0z m6122 -29 c16 16 36 -25 27 -54 -8 -23 -13 -57 -8 -57 19 0 30
15 26 36 -7 35 7 29 24 -11 10 -26 12 -41 4 -55 -15 -28 -12 -40 8 -40 16 0
20 -15 30 -121 11 -106 10 -122 -3 -136 -15 -14 -14 -17 4 -35 12 -10 21 -31
21 -45 0 -50 11 -15 15 48 2 35 -1 69 -6 76 -13 15 -1 56 14 50 7 -2 11 -17 9
-33 l-2 -29 20 25 20 25 0 -24 c0 -14 -6 -52 -12 -85 -10 -47 -10 -60 0 -64 6
-2 12 -13 12 -25 0 -20 0 -20 -15 -1 -13 18 -14 17 -15 -20 0 -30 -3 -37 -15
-32 -10 3 -17 -3 -21 -19 -3 -14 -10 -25 -15 -25 -5 0 -9 -10 -9 -22 -1 -21
-2 -22 -14 -6 -9 12 -24 17 -52 15 -57 -4 -74 7 -74 49 0 40 34 144 53 159 17
14 39 65 27 65 -5 0 -12 -5 -15 -10 -11 -17 -27 1 -21 23 3 13 -4 31 -20 49
-24 29 -32 73 -15 80 5 2 12 34 16 73 7 64 6 69 -9 56 -9 -8 -16 -9 -16 -3 0
6 7 15 16 20 12 7 14 16 9 33 l-8 24 -9 -24 c-14 -38 -25 -11 -20 48 4 49 5
53 16 33 9 -16 15 -19 23 -11z m459 -38 c-2 -16 -5 -30 -6 -33 0 -3 -7 6 -14
20 -16 27 -12 40 10 40 10 0 13 -8 10 -27z m417 -10 c19 -45 31 -114 20 -112
-19 3 -23 -2 -13 -21 9 -17 7 -24 -13 -43 -27 -25 -52 -77 -37 -77 6 0 10 6
10 14 0 8 9 12 23 11 31 -3 31 -3 18 -19 -6 -7 -9 -21 -5 -30 3 -9 1 -16 -5
-16 -6 0 -11 -18 -11 -42 0 -47 -39 -211 -52 -216 -4 -2 -8 -17 -8 -33 0 -20
-5 -29 -16 -29 -10 0 -13 6 -9 19 4 12 0 21 -11 25 -14 5 -14 9 -3 23 8 9 9
14 3 10 -7 -4 -17 0 -24 8 -7 8 -9 15 -6 15 4 0 2 9 -4 20 -16 29 -1 89 27
114 24 21 67 105 58 114 -2 3 -11 -1 -20 -8 -12 -10 -15 -10 -15 4 0 9 7 19
16 23 8 3 13 11 10 18 -2 7 -1 30 4 51 6 25 5 43 -2 52 -18 21 18 162 41 162
4 0 15 -17 24 -37z m-363 -7 c0 -2 -3 -11 -6 -20 -9 -23 -24 -20 -24 4 0 11 7
20 15 20 8 0 15 -2 15 -4z m-60 -41 c0 -8 -4 -15 -10 -15 -5 0 -10 7 -10 15 0
8 5 15 10 15 6 0 10 -7 10 -15z m260 -1 c0 -8 -4 -12 -10 -9 -5 3 -10 10 -10
16 0 5 5 9 10 9 6 0 10 -7 10 -16z m-754 -80 c-9 -23 -12 -17 -20 36 l-6 45
16 -32 c9 -18 13 -40 10 -49z m555 55 c8 -15 8 -19 0 -15 -7 5 -11 -2 -11 -18
0 -14 -4 -26 -9 -26 -13 0 -21 53 -9 68 14 16 15 16 29 -9z m-635 -26 c-10
-10 -19 5 -10 18 6 11 8 11 12 0 2 -7 1 -15 -2 -18z m734 8 c0 -6 -4 -13 -10
-16 -5 -3 -10 1 -10 9 0 9 5 16 10 16 6 0 10 -4 10 -9z m140 -16 c0 -14 -4
-25 -10 -25 -5 0 -10 11 -10 25 0 14 5 25 10 25 6 0 10 -11 10 -25z m-558 -57
c13 -44 2 -91 -23 -96 -13 -2 -15 7 -13 48 1 27 -2 50 -7 50 -5 0 -9 -5 -9
-12 0 -6 -2 -9 -5 -6 -3 3 -2 18 1 35 9 44 40 33 56 -19z m-7915 -40 c-3 -8
-6 -5 -6 6 -1 11 2 17 5 13 3 -3 4 -12 1 -19z m5198 -38 c3 -5 -1 -10 -9 -10
-8 0 -18 5 -21 10 -3 6 1 10 9 10 8 0 18 -4 21 -10z m2451 -17 c-10 -10 -19 5
-10 18 6 11 8 11 12 0 2 -7 1 -15 -2 -18z m39 -42 c-3 -26 0 -43 9 -51 11 -9
12 -18 4 -41 -5 -16 -14 -26 -19 -23 -13 7 -12 154 1 154 6 0 8 -16 5 -39z
m714 -3 c0 -24 -8 -58 -17 -75 -16 -32 -32 -43 -32 -23 0 6 -7 10 -15 10 -20
0 -19 17 1 38 15 15 16 14 10 -6 -4 -13 -3 -22 3 -22 14 0 24 36 16 61 -6 17
17 59 31 59 2 0 3 -19 3 -42z m78 -50 c-3 -8 -6 -5 -6 6 -1 11 2 17 5 13 3 -3
4 -12 1 -19z m-173 -123 c-4 -8 -8 -15 -10 -15 -2 0 -4 7 -4 15 0 8 4 15 10
15 5 0 7 -7 4 -15z m-6940 -51 c3 -8 2 -12 -4 -9 -6 3 -10 10 -10 16 0 14 7
11 14 -7z m-1204 -79 c16 -19 3 -40 -16 -24 -15 13 -19 39 -5 39 5 0 14 -7 21
-15z m8329 -42 c2 -23 -19 -13 -25 11 -8 35 8 59 17 26 4 -14 7 -31 8 -37z
m-3415 16 c-3 -5 -10 -7 -15 -3 -5 3 -7 10 -3 15 3 5 10 7 15 3 5 -3 7 -10 3
-15z m3290 -41 c3 -13 6 -49 6 -80 0 -51 -2 -58 -20 -58 -11 0 -20 -7 -20 -15
0 -8 -4 -15 -10 -15 -5 0 -10 -11 -10 -25 0 -18 4 -23 15 -19 38 15 7 -39 -49
-83 -23 -19 -26 -16 -20 16 7 35 -13 52 -21 18 -4 -13 -5 -27 -4 -33 7 -29
-36 -84 -65 -84 -16 0 -18 2 -7 9 7 5 10 14 7 20 -4 6 -11 9 -16 6 -8 -5 -20
28 -20 55 1 11 6 9 19 -7 11 -13 23 -23 27 -23 4 0 3 5 -3 11 -6 6 -9 19 -6
28 4 14 3 14 -6 1 -9 -13 -11 -13 -11 1 0 9 7 19 15 23 8 3 15 17 15 31 0 16
-6 25 -15 25 -8 0 -15 8 -15 19 0 10 7 24 15 31 8 7 15 19 15 26 0 8 4 14 9
14 6 0 18 14 28 30 17 29 43 41 43 20 0 -5 7 -10 15 -10 8 0 15 6 15 13 0 6
13 12 30 13 37 1 48 10 32 26 -14 14 -16 38 -3 38 5 0 11 -10 15 -22z m-8434
-48 c0 -5 -2 -10 -4 -10 -3 0 -8 5 -11 10 -3 6 -1 10 4 10 6 0 11 -4 11 -10z
m5490 -10 c0 -5 -4 -10 -10 -10 -5 0 -10 5 -10 10 0 6 5 10 10 10 6 0 10 -4
10 -10z m2995 0 c3 -5 1 -10 -4 -10 -6 0 -11 5 -11 10 0 6 2 10 4 10 3 0 8 -4
11 -10z m-3005 -50 c0 -5 -5 -10 -11 -10 -5 0 -7 5 -4 10 3 6 8 10 11 10 2 0
4 -4 4 -10z m3072 -5 c2 3 5 -2 5 -10 0 -8 -4 -12 -9 -9 -4 3 -8 0 -8 -7 0
-20 -14 -1 -15 21 -1 14 2 17 10 10 7 -5 14 -8 17 -5z m-57 -35 c3 -5 -1 -10
-10 -10 -9 0 -13 5 -10 10 3 6 8 10 10 10 2 0 7 -4 10 -10z m45 -27 c0 -15 2
-16 10 -3 14 22 12 3 -7 -72 -10 -40 -23 -68 -30 -68 -7 0 -13 -7 -13 -16 0
-14 3 -14 15 -4 9 7 18 11 20 8 2 -2 -1 -42 -9 -88 -11 -69 -18 -88 -40 -106
-28 -25 -33 -35 -14 -31 25 5 10 -185 -17 -229 -8 -12 -11 -30 -9 -41 4 -14
-3 -25 -23 -38 -15 -10 -39 -29 -53 -42 -14 -13 -28 -23 -32 -23 -11 0 -48
-33 -48 -42 0 -20 44 -4 76 27 19 19 41 35 50 35 21 0 29 -29 15 -52 -6 -10
-9 -23 -6 -28 3 -4 -2 -37 -10 -73 -8 -36 -12 -79 -9 -96 4 -18 2 -31 -3 -31
-6 0 -15 -37 -22 -82 -7 -46 -15 -99 -18 -118 -3 -19 -12 -71 -20 -115 -7 -44
-15 -96 -17 -115 -1 -19 -6 -50 -10 -68 -10 -41 -15 -73 -23 -137 -3 -27 -10
-56 -16 -63 -6 -7 -9 -33 -9 -57 1 -24 -5 -73 -13 -110 -9 -36 -16 -83 -17
-103 0 -20 -6 -46 -11 -57 -6 -11 -10 -30 -8 -43 1 -13 -5 -34 -14 -48 -11
-17 -14 -35 -10 -58 4 -21 1 -45 -7 -62 -8 -16 -13 -36 -11 -45 2 -8 -2 -29
-9 -46 -11 -24 -17 -29 -33 -22 -17 6 -17 8 -2 8 26 1 21 31 -5 31 -18 0 -20
2 -9 9 12 8 12 13 -3 35 -18 28 -14 46 10 46 20 0 17 13 -7 34 -20 17 -23 17
-31 2 -7 -13 -13 -14 -23 -6 -9 8 -15 8 -20 0 -11 -18 -24 -11 -31 18 -4 15
-14 32 -22 38 -13 9 -12 14 3 38 16 24 16 28 3 44 -9 9 -18 29 -22 45 -5 22
-12 27 -36 27 -36 0 -37 -6 -8 -37 l21 -23 -25 0 c-14 0 -31 7 -38 15 -9 11
-9 15 -1 15 7 0 9 5 6 10 -4 6 -18 9 -32 8 -22 -3 -28 2 -35 31 -10 37 6 69
18 37 5 -13 9 -14 20 -5 8 6 14 8 14 3 0 -4 9 2 20 14 26 28 55 149 40 167 -8
9 -6 14 5 19 8 3 15 12 15 20 0 10 -6 13 -15 10 -12 -5 -15 4 -15 47 0 30 -4
68 -9 86 -8 28 -7 32 12 35 12 2 22 10 22 18 0 8 -4 14 -10 13 -5 0 -19 -3
-30 -5 -14 -2 -21 3 -23 20 -4 29 23 40 47 18 22 -20 31 -20 31 -1 0 8 -5 15
-11 15 -8 0 -10 14 -6 40 3 22 1 40 -4 40 -5 0 -9 -7 -9 -15 0 -13 -3 -13 -20
-3 -13 8 -16 14 -8 17 7 2 24 15 38 28 28 26 39 25 54 -2 6 -10 23 -31 39 -46
15 -16 27 -33 27 -38 0 -14 45 -43 62 -40 19 3 68 -19 68 -31 0 -5 -4 -10 -10
-10 -5 0 -10 -7 -10 -16 0 -22 60 -15 74 9 9 15 6 22 -16 38 -16 12 -28 28
-28 38 0 11 -16 23 -46 34 -44 16 -45 16 -39 -3 4 -11 2 -20 -3 -20 -13 0 -22
49 -11 56 18 11 8 23 -32 36 -23 7 -39 16 -37 19 1 3 -3 13 -10 22 -15 17 -10
22 36 32 20 4 37 16 43 28 5 12 16 33 24 47 8 14 15 46 15 72 0 38 4 48 20 53
28 9 28 55 0 55 -31 0 -34 25 -7 54 17 19 25 38 25 67 1 45 15 69 43 69 10 0
20 4 23 9 3 4 -11 8 -32 7 -32 -1 -37 2 -34 19 1 11 3 32 3 47 0 36 12 42 79
43 l55 0 6 47 c4 26 10 51 13 56 3 6 -1 13 -10 16 -23 9 -36 7 -29 -4 3 -6 -1
-7 -9 -4 -11 4 -16 0 -16 -10 0 -20 -16 -21 -23 -2 -3 8 2 25 11 38 28 38 42
67 42 85 0 10 8 27 16 38 14 19 16 19 28 3 12 -17 14 -17 28 0 23 27 59 102
53 112 -6 10 21 76 35 85 5 3 10 17 10 31 0 16 6 24 18 24 15 1 15 2 1 10 -10
6 -15 21 -14 37 1 15 3 47 3 71 2 35 5 42 20 40 13 -2 16 3 14 25 -2 15 1 27
7 27 6 0 11 -8 11 -17z m-440 -108 c0 -8 -51 -55 -60 -55 -15 0 -12 6 13 34
19 22 47 35 47 21z m30 -19 c0 -18 -5 -24 -19 -23 -17 1 -18 3 -4 24 19 29 23
29 23 -1z m-2728 -4 c4 -4 -1 -18 -13 -31 -18 -19 -21 -32 -17 -79 6 -71 1
-90 -17 -65 -12 16 -14 14 -20 -22 -3 -22 -10 -47 -14 -55 -5 -9 -12 -30 -16
-48 -3 -17 -13 -36 -22 -40 -8 -5 -14 -12 -14 -15 3 -22 0 -37 -8 -37 -13 0
-3 38 27 95 29 59 26 125 -6 125 -25 0 -42 -20 -42 -49 0 -69 -33 -125 -104
-179 -34 -26 -129 -30 -160 -7 -10 8 -23 12 -27 9 -5 -3 -9 3 -10 13 0 10 -4
45 -9 78 -7 59 -7 61 34 121 30 45 59 73 109 105 37 24 67 46 67 50 0 3 20 7
44 7 24 1 65 10 92 22 48 19 107 21 126 2z m-5002 -17 c13 -14 19 -25 13 -25
-5 0 -20 11 -33 25 -13 14 -19 25 -13 25 5 0 20 -11 33 -25z m7995 -17 c-9
-88 -44 -128 -77 -88 -23 28 -23 37 2 50 11 6 20 17 20 24 0 17 35 48 43 39 4
-3 7 -1 7 5 0 7 2 12 5 12 2 0 2 -19 0 -42z m-2932 7 c-3 -8 -9 -15 -14 -15
-10 0 -12 24 -3 33 11 11 24 -3 17 -18z m2994 3 c-3 -8 -6 -5 -6 6 -1 11 2 17
5 13 3 -3 4 -12 1 -19z m-310 -75 c-3 -10 -5 -4 -5 12 0 17 2 24 5 18 2 -7 2
-21 0 -30z m-2710 -15 c-3 -8 -6 -5 -6 6 -1 11 2 17 5 13 3 -3 4 -12 1 -19z
m3006 -5 c-7 -2 -19 -2 -25 0 -7 3 -2 5 12 5 14 0 19 -2 13 -5z m-386 -34
c-20 -32 -35 -22 -21 15 3 8 12 12 19 9 11 -4 12 -9 2 -24z m163 21 c0 -5 -4
-10 -10 -10 -5 0 -10 5 -10 10 0 6 5 10 10 10 6 0 10 -4 10 -10z m85 -1 c4 -6
-1 -16 -11 -24 -23 -16 -28 -13 -19 14 7 23 20 27 30 10z m-164 -29 c19 0 8
-34 -18 -56 -32 -28 -60 -27 -55 0 5 29 56 89 60 71 2 -8 8 -15 13 -15z m259
0 c0 -5 -5 -10 -11 -10 -5 0 -7 5 -4 10 3 6 8 10 11 10 2 0 4 -4 4 -10z m-60
-45 c8 -10 9 -15 2 -15 -6 0 -20 -9 -31 -21 -13 -14 -26 -19 -40 -14 -16 5
-23 1 -30 -17 -9 -21 -10 -21 -10 10 -1 42 1 47 19 45 8 -1 19 5 23 13 10 18
51 18 67 -1z m-120 -4 c0 -6 -4 -13 -10 -16 -5 -3 -10 1 -10 9 0 9 5 16 10 16
6 0 10 -4 10 -9z m-355 -41 c-3 -5 -13 -10 -21 -10 -8 0 -14 -9 -14 -20 0 -11
5 -20 10 -20 6 0 10 -7 10 -15 0 -12 -4 -11 -20 5 -25 25 -25 39 -2 56 20 16
46 18 37 4z m513 -19 c-7 -11 -16 -17 -20 -14 -10 5 10 33 23 33 5 0 4 -9 -3
-19z m-77 -27 c-12 -8 -22 -25 -22 -37 l-2 -22 -4 22 c-4 21 38 77 46 60 2 -5
-6 -15 -18 -23z m-7456 -4 c3 -5 1 -10 -4 -10 -6 0 -11 5 -11 10 0 6 2 10 4
10 3 0 8 -4 11 -10z m7326 -35 c-5 -17 -10 -25 -10 -19 -1 7 -10 14 -21 17
-27 7 -25 35 3 39 31 6 38 -3 28 -37z m-7926 5 c3 -5 1 -10 -4 -10 -6 0 -11 5
-11 10 0 6 2 10 4 10 3 0 8 -4 11 -10z m7582 -30 c-6 -11 -15 -20 -19 -20 -12
0 -9 25 4 38 17 17 29 4 15 -18z m283 5 c0 -14 -4 -25 -10 -25 -5 0 -10 11
-10 25 0 14 5 25 10 25 6 0 10 -11 10 -25z m143 -10 c-3 -13 -9 -22 -14 -19
-5 3 -9 -2 -9 -10 0 -9 -4 -16 -10 -16 -14 0 -13 6 6 46 18 38 34 38 27 -1z
m-8228 15 c3 -5 1 -10 -4 -10 -6 0 -11 5 -11 10 0 6 2 10 4 10 3 0 8 -4 11
-10z m368 -57 c31 -17 31 -18 8 -21 -13 -2 -28 1 -34 7 -6 6 -19 11 -30 11
-10 0 -15 5 -12 10 9 15 32 12 68 -7z m7635 -1 c21 -22 42 -58 42 -71 0 -5
-13 -3 -30 5 -30 16 -40 26 -19 22 21 -5 21 23 0 29 -12 3 -21 12 -21 19 0 19
7 18 28 -4z m-64 -7 c-4 -8 1 -17 9 -21 14 -5 14 -8 -1 -25 -9 -10 -20 -19
-24 -19 -10 0 -11 64 -1 73 12 12 22 7 17 -8z m-7979 -5 c-3 -5 -11 -10 -16
-10 -6 0 -7 5 -4 10 3 6 11 10 16 10 6 0 7 -4 4 -10z m8140 0 c-3 -5 -10 -10
-16 -10 -5 0 -9 5 -9 10 0 6 7 10 16 10 8 0 12 -4 9 -10z m55 -6 c0 -17 -22
-14 -28 4 -2 7 3 12 12 12 9 0 16 -7 16 -16z m-7700 -4 c-19 -13 -30 -13 -30
0 0 6 10 10 23 10 18 0 19 -2 7 -10z m4977 -12 c-3 -8 -6 -5 -6 6 -1 11 2 17
5 13 3 -3 4 -12 1 -19z m2595 -119 c46 2 53 -9 34 -54 -17 -40 -37 -44 -67
-14 -17 17 -23 19 -30 8 -8 -11 -12 -10 -24 5 -8 10 -12 22 -10 27 3 4 1 10
-5 14 -6 3 -13 -1 -16 -10 -6 -14 -9 -14 -30 0 -16 10 -25 11 -30 4 -4 -8 -9
-7 -15 2 -18 28 -8 32 74 24 45 -4 99 -7 119 -6z m48 -239 c0 -5 -5 -10 -11
-10 -5 0 -7 5 -4 10 3 6 8 10 11 10 2 0 4 -4 4 -10z m-150 -30 c0 -5 -2 -10
-4 -10 -3 0 -8 5 -11 10 -3 6 -1 10 4 10 6 0 11 -4 11 -10z m-93 -42 c-3 -8
-6 -5 -6 6 -1 11 2 17 5 13 3 -3 4 -12 1 -19z m48 -44 c13 -5 14 -8 3 -15 -9
-6 -10 -9 -1 -9 7 0 10 -7 7 -15 -8 -21 -34 0 -34 26 0 21 1 22 25 13z m115
-129 c0 -8 7 -15 15 -15 24 0 17 -19 -10 -26 -14 -3 -25 -10 -25 -15 0 -5 -4
-9 -10 -9 -16 0 -12 30 5 36 10 4 13 13 10 25 -4 11 -2 19 4 19 6 0 11 -7 11
-15z m-229 -418 c-13 -13 -26 -3 -16 12 3 6 11 8 17 5 6 -4 6 -10 -1 -17z
m286 -669 c-3 -8 -6 -5 -6 6 -1 11 2 17 5 13 3 -3 4 -12 1 -19z m53 -159 c0
-5 -4 -9 -10 -9 -5 0 -10 7 -10 16 0 8 5 12 10 9 6 -3 10 -10 10 -16z m570
-419 c0 -5 -9 -10 -21 -10 -11 0 -17 5 -14 10 3 6 13 10 21 10 8 0 14 -4 14
-10z m-63 -26 c-3 -3 -12 -4 -19 -1 -8 3 -5 6 6 6 11 1 17 -2 13 -5z m-57 -14
c0 -5 -9 -10 -19 -10 -11 0 -28 -3 -38 -6 -12 -5 -15 -4 -8 4 9 9 30 17 58 21
4 0 7 -3 7 -9z m-102 -22 c-2 -6 -10 -14 -16 -16 -7 -2 -10 2 -6 12 7 18 28
22 22 4z m-101 -34 c-3 -3 -12 -4 -19 -1 -8 3 -5 6 6 6 11 1 17 -2 13 -5z
m-3257 -1874 c0 -5 -2 -10 -4 -10 -3 0 -8 5 -11 10 -3 6 -1 10 4 10 6 0 11 -4
11 -10z"/>
<path d="M8632 6835 c0 -16 2 -22 5 -12 2 9 2 23 0 30 -3 6 -5 -1 -5 -18z"/>
<path d="M8675 6780 c3 -5 8 -10 11 -10 2 0 4 5 4 10 0 6 -5 10 -11 10 -5 0
-7 -4 -4 -10z"/>
<path d="M8730 6565 c0 -8 5 -15 10 -15 6 0 10 7 10 15 0 8 -4 15 -10 15 -5 0
-10 -7 -10 -15z"/>
<path d="M9410 6991 c0 -5 5 -13 10 -16 6 -3 10 -2 10 4 0 5 -4 13 -10 16 -5
3 -10 2 -10 -4z"/>
<path d="M9221 6344 c0 -11 3 -14 6 -6 3 7 2 16 -1 19 -3 4 -6 -2 -5 -13z"/>
<path d="M9116 6324 c-4 -9 -4 -19 -1 -22 2 -3 7 3 11 12 4 9 4 19 1 22 -2 3
-7 -3 -11 -12z"/>
<path d="M9071 6268 c-22 -23 -19 -41 4 -31 8 3 15 15 16 27 0 19 1 19 11 -4
11 -26 25 -12 14 15 -8 21 -22 19 -45 -7z"/>
<path d="M9146 6264 c-3 -9 -4 -20 -1 -25 3 -5 1 -18 -5 -30 -10 -18 -9 -20 7
-17 13 2 19 14 21 46 3 41 -10 57 -22 26z"/>
<path d="M8791 4734 c0 -11 3 -14 6 -6 3 7 2 16 -1 19 -3 4 -6 -2 -5 -13z"/>
<path d="M8877 4736 c4 -5 -2 -15 -11 -22 -11 -8 -13 -14 -6 -19 9 -6 59 32
60 45 0 3 -11 5 -24 5 -13 0 -22 -4 -19 -9z"/>
<path d="M8934 4726 c-10 -8 -16 -17 -13 -20 10 -10 39 5 39 20 0 17 -2 17
-26 0z"/>
<path d="M8795 4700 c-4 -6 -3 -16 3 -22 13 -13 23 4 13 21 -7 10 -10 10 -16
1z"/>
<path d="M8778 9553 c7 -3 16 -2 19 1 4 3 -2 6 -13 5 -11 0 -14 -3 -6 -6z"/>
<path d="M9400 9530 c0 -16 5 -30 10 -30 6 0 10 14 10 30 0 17 -4 30 -10 30
-5 0 -10 -13 -10 -30z"/>
<path d="M9470 9550 c0 -5 -7 -10 -15 -10 -8 0 -15 -5 -15 -12 0 -6 3 -8 6 -5
4 3 15 2 24 -3 20 -11 46 12 35 30 -8 13 -35 13 -35 0z"/>
<path d="M9580 9551 c0 -6 5 -13 10 -16 6 -3 10 1 10 9 0 9 -4 16 -10 16 -5 0
-10 -4 -10 -9z"/>
<path d="M8687 9543 c-4 -3 -7 -19 -7 -35 0 -28 -22 -39 -35 -18 -5 8 -11 7
-21 -1 -13 -10 -12 -14 2 -30 23 -26 36 -24 67 9 25 26 26 31 14 55 -8 15 -17
24 -20 20z"/>
<path d="M9430 9498 c0 -10 -7 -18 -16 -18 -11 0 -14 -8 -12 -27 2 -16 8 -28
13 -28 6 0 11 12 13 28 3 23 8 27 33 27 16 0 29 4 29 9 0 5 -9 7 -21 4 -12 -4
-25 0 -30 8 -7 11 -9 10 -9 -3z"/>
<path d="M9577 9484 c-8 -8 1 -24 14 -24 5 0 9 7 9 15 0 15 -12 20 -23 9z"/>
<path d="M9500 9470 c0 -13 11 -13 30 0 12 8 11 10 -7 10 -13 0 -23 -4 -23
-10z"/>
<path d="M9540 9440 c0 -5 7 -10 15 -10 8 0 15 5 15 10 0 6 -7 10 -15 10 -8 0
-15 -4 -15 -10z"/>
<path d="M9430 9404 c0 -8 5 -12 10 -9 6 4 8 11 5 16 -9 14 -15 11 -15 -7z"/>
<path d="M9452 9373 c-8 -21 -11 -23 -11 -9 -1 19 -2 19 -21 1 -11 -10 -19
-23 -17 -29 4 -11 10 -13 56 -15 20 -1 22 -5 16 -28 -5 -23 -4 -25 9 -14 18
15 21 41 6 41 -5 0 -10 18 -10 40 0 46 -14 52 -28 13z"/>
<path d="M6081 9374 c0 -11 3 -14 6 -6 3 7 2 16 -1 19 -3 4 -6 -2 -5 -13z"/>
<path d="M8900 9273 c0 -25 1 -26 16 -11 9 9 13 21 10 27 -13 20 -26 11 -26
-16z"/>
<path d="M8843 9201 c-3 -12 -10 -21 -15 -21 -5 0 -8 -15 -6 -32 4 -42 31 -48
54 -13 16 25 16 28 1 36 -9 5 -14 16 -11 23 3 8 0 17 -6 21 -7 4 -14 -2 -17
-14z"/>
<path d="M9381 9174 c0 -11 3 -14 6 -6 3 7 2 16 -1 19 -3 4 -6 -2 -5 -13z"/>
<path d="M9418 9120 c-25 -25 -37 -44 -32 -52 6 -9 9 -9 12 0 2 7 19 12 38 12
33 0 34 1 34 40 0 22 -3 40 -6 40 -4 0 -24 -18 -46 -40z"/>
<path d="M9246 9101 c-21 -11 -51 -23 -67 -26 -37 -8 -48 -25 -15 -25 13 0 33
-3 43 -7 15 -6 16 -4 5 9 -10 13 -10 17 4 22 22 8 37 7 54 -4 13 -9 13 -11 0
-20 -13 -8 -13 -10 2 -10 33 0 49 11 37 26 -6 8 -19 14 -27 14 -13 0 -14 2 -3
13 11 10 14 10 18 0 5 -13 33 -18 33 -7 0 7 -31 33 -40 34 -3 0 -23 -9 -44
-19z"/>
<path d="M9513 9067 c5 -15 37 -22 37 -9 0 5 -9 12 -21 15 -13 3 -19 1 -16 -6z"/>
<path d="M9585 9040 c3 -5 8 -10 11 -10 2 0 4 5 4 10 0 6 -5 10 -11 10 -5 0
-7 -4 -4 -10z"/>
<path d="M9070 9010 c0 -5 7 -10 16 -10 8 0 12 5 9 10 -3 6 -10 10 -16 10 -5
0 -9 -4 -9 -10z"/>
<path d="M9120 9009 c0 -5 4 -9 9 -9 5 0 16 -3 25 -6 9 -3 16 -2 16 4 0 5 -11
12 -25 14 -14 3 -25 1 -25 -3z"/>
<path d="M9555 8910 c-3 -5 1 -10 10 -10 9 0 13 5 10 10 -3 6 -8 10 -10 10 -2
0 -7 -4 -10 -10z"/>
<path d="M9591 8485 c-2 -11 -2 -30 -1 -42 1 -17 -4 -23 -19 -23 -26 0 -26
-10 -3 -41 10 -14 17 -39 16 -61 -1 -21 3 -38 7 -38 13 0 11 108 -1 115 -8 5
-8 11 0 20 6 8 10 31 7 52 -2 21 -5 29 -6 18z"/>
<path d="M6290 8401 c0 -5 7 -14 15 -21 13 -10 15 -9 15 9 0 12 -6 21 -15 21
-8 0 -15 -4 -15 -9z"/>
<path d="M9360 8401 c0 -9 30 -24 36 -18 2 1 -6 8 -16 15 -11 7 -20 8 -20 3z"/>
<path d="M9321 8376 c-9 -10 -6 -17 13 -30 32 -20 35 -20 33 3 0 11 -5 17 -9
15 -4 -3 -8 2 -8 10 0 20 -14 21 -29 2z"/>
<path d="M9200 8320 c0 -5 7 -10 16 -10 8 0 12 5 9 10 -3 6 -10 10 -16 10 -5
0 -9 -4 -9 -10z"/>
<path d="M9280 8266 c0 -22 3 -27 11 -19 8 8 8 16 0 30 -9 16 -10 14 -11 -11z"/>
<path d="M6378 8231 c-2 -23 -1 -41 3 -41 11 0 20 63 10 73 -5 5 -10 -8 -13
-32z"/>
<path d="M6280 8250 c0 -5 5 -10 10 -10 6 0 10 5 10 10 0 6 -4 10 -10 10 -5 0
-10 -4 -10 -10z"/>
<path d="M9198 8174 c3 -15 8 -22 14 -16 9 9 1 42 -12 42 -4 0 -5 -12 -2 -26z"/>
<path d="M4605 8141 c-38 -3 -76 -10 -83 -14 -22 -15 -2 -27 44 -27 41 0 44
-2 44 -26 0 -15 -15 -44 -35 -69 -38 -46 -55 -90 -55 -141 0 -18 -8 -38 -20
-49 -14 -12 -17 -22 -11 -28 7 -7 4 -15 -7 -23 -12 -10 -14 -16 -6 -21 6 -5
12 -21 12 -38 0 -61 29 -136 113 -295 139 -262 182 -292 484 -344 87 -15 93
-15 200 8 61 14 153 36 205 50 93 25 204 54 365 95 193 48 256 67 274 82 10
10 27 20 37 23 11 3 37 22 58 41 22 19 43 35 48 35 12 0 38 69 38 102 0 23 -4
29 -15 24 -8 -3 -15 0 -16 7 -1 7 -2 27 -4 46 -2 19 -10 38 -19 43 -9 5 -16
18 -16 29 0 11 -7 27 -15 35 -8 9 -15 29 -15 45 0 33 -6 36 -30 14 -15 -14
-22 -12 -66 11 -27 14 -62 34 -79 44 -16 10 -41 21 -55 25 -14 4 -31 12 -39
18 -7 6 -18 12 -25 13 -6 1 -24 7 -41 14 -16 6 -31 11 -32 11 -2 0 -27 8 -55
19 -56 20 -150 48 -188 55 -13 2 -37 9 -54 14 -17 5 -65 16 -106 25 -193 40
-230 49 -300 71 -211 67 -375 91 -535 76z m815 -425 c0 -11 -19 -15 -25 -6 -3
5 1 10 9 10 9 0 16 -2 16 -4z m-431 -295 c-15 -5 -38 30 -38 59 0 23 2 21 24
-15 14 -23 20 -41 14 -44z m61 -62 c0 -6 -4 -7 -10 -4 -5 3 -10 11 -10 16 0 6
5 7 10 4 6 -3 10 -11 10 -16z m97 -50 c15 -7 41 -12 57 -13 50 -2 44 -26 -6
-26 -49 0 -98 19 -98 38 0 15 11 15 47 1z"/>
<path d="M6293 8105 c-9 -24 1 -27 15 -5 8 13 8 20 2 20 -6 0 -13 -7 -17 -15z"/>
<path d="M9250 8106 c0 -8 -9 -18 -20 -21 -16 -5 -19 -12 -14 -28 8 -26 4 -23
32 -31 15 -5 22 -3 22 6 0 18 33 -32 35 -53 2 -35 26 -49 79 -49 l51 0 -35 21
c-40 25 -59 47 -60 70 0 9 -6 19 -14 22 -8 3 -20 22 -27 41 -13 36 -49 52 -49
22z"/>
<path d="M9360 8086 c0 -8 7 -16 15 -19 8 -4 21 -21 30 -39 25 -52 45 -84 46
-73 1 6 2 17 3 25 0 8 11 16 24 18 32 5 27 22 -6 22 -20 0 -35 9 -50 30 -12
16 -22 34 -22 40 0 5 -9 10 -20 10 -11 0 -20 -6 -20 -14z"/>
<path d="M9550 7940 c0 -5 5 -10 11 -10 5 0 7 5 4 10 -3 6 -8 10 -11 10 -2 0
-4 -4 -4 -10z"/>
<path d="M9456 7918 c-20 -11 -22 -58 -2 -58 14 0 56 -62 56 -83 0 -7 14 -20
31 -29 23 -14 29 -23 24 -38 -10 -31 5 -45 22 -20 13 19 13 25 -1 53 -8 18
-23 37 -34 44 -11 6 -22 25 -25 42 -5 21 -15 35 -32 41 -32 12 -33 24 -1 16
15 -4 26 -1 29 7 7 18 -45 37 -67 25z"/>
<path d="M9360 7890 c0 -5 5 -10 10 -10 6 0 10 5 10 10 0 6 -4 10 -10 10 -5 0
-10 -4 -10 -10z"/>
<path d="M9280 7846 c0 -4 14 -25 30 -48 17 -22 30 -49 30 -59 0 -9 6 -20 13
-22 7 -3 4 -6 -6 -6 -27 -1 -17 -35 11 -39 12 -2 23 0 23 5 9 63 8 73 -6 73
-8 0 -15 6 -15 14 0 8 -6 21 -14 28 -8 8 -15 23 -18 34 -3 17 -48 35 -48 20z"/>
<path d="M9452 7698 c3 -7 13 -15 22 -16 12 -3 17 1 14 10 -3 7 -13 15 -22 16
-12 3 -17 -1 -14 -10z"/>
<path d="M9520 7670 c0 -5 5 -10 10 -10 6 0 10 5 10 10 0 6 -4 10 -10 10 -5 0
-10 -4 -10 -10z"/>
<path d="M9485 7650 c-3 -5 -3 -19 0 -30 8 -24 46 -21 78 7 20 18 20 17 14
-13 -4 -20 -1 -38 8 -50 13 -17 14 -14 15 33 0 28 -4 54 -8 57 -15 9 -52 -6
-52 -20 0 -20 -10 -17 -30 6 -12 13 -21 17 -25 10z"/>
<path d="M9356 7612 c-2 -4 -1 -14 5 -22 7 -12 9 -10 9 8 0 23 -5 28 -14 14z"/>
<path d="M9361 7534 c0 -11 3 -14 6 -6 3 7 2 16 -1 19 -3 4 -6 -2 -5 -13z"/>
<path d="M9460 7490 c0 -5 5 -10 10 -10 6 0 10 5 10 10 0 6 -4 10 -10 10 -5 0
-10 -4 -10 -10z"/>
<path d="M9525 7400 c-3 -5 -1 -10 4 -10 6 0 11 5 11 10 0 6 -2 10 -4 10 -3 0
-8 -4 -11 -10z"/>
<path d="M5180 6149 c0 -5 5 -7 10 -4 6 3 10 8 10 11 0 2 -4 4 -10 4 -5 0 -10
-5 -10 -11z"/>
<path d="M5156 6103 c-40 -132 -41 -260 -2 -343 23 -50 104 -134 151 -156 17
-8 62 -30 100 -50 39 -20 79 -40 90 -45 27 -12 124 -25 158 -21 40 5 33 22
-10 22 -45 0 -136 30 -222 73 -66 32 -98 60 -128 110 -10 15 -23 27 -30 27 -7
0 -13 5 -13 12 0 6 -11 25 -24 42 -13 17 -27 47 -31 66 -4 19 -12 38 -18 41
-5 4 -7 15 -3 25 12 31 10 208 -2 212 -6 2 -13 -5 -16 -15z"/>
<path d="M5431 6104 c0 -11 3 -14 6 -6 3 7 2 16 -1 19 -3 4 -6 -2 -5 -13z"/>
<path d="M5420 6006 c0 -12 -5 -16 -19 -11 -16 5 -19 0 -23 -35 -2 -22 1 -45
7 -52 7 -8 5 -9 -7 -5 -38 13 -31 -111 8 -154 8 -9 14 -20 12 -25 -1 -5 10
-28 26 -51 27 -41 73 -73 103 -73 22 0 15 18 -9 22 -15 2 -30 19 -47 52 -21
40 -26 67 -30 161 -4 62 -3 111 2 108 4 -2 7 2 7 9 0 7 3 24 7 38 3 14 2 22
-2 18 -5 -4 -14 -3 -22 3 -10 9 -13 8 -13 -5z m30 -327 c0 -5 -4 -9 -10 -9 -5
0 -10 7 -10 16 0 8 5 12 10 9 6 -3 10 -10 10 -16z"/>
<path d="M5695 5500 c3 -5 13 -10 21 -10 8 0 14 5 14 10 0 6 -9 10 -21 10 -11
0 -17 -4 -14 -10z"/>
<path d="M5870 5430 c0 -5 5 -10 10 -10 6 0 10 5 10 10 0 6 -4 10 -10 10 -5 0
-10 -4 -10 -10z"/>
<path d="M5465 4840 c-16 -7 -17 -9 -3 -9 9 -1 20 4 23 9 7 11 7 11 -20 0z"/>
<path d="M5377 4778 c-8 -30 0 -36 18 -12 18 24 19 34 1 34 -7 0 -16 -10 -19
-22z"/>
<path d="M5312 4571 c-1 -22 2 -42 8 -46 6 -4 10 11 10 39 0 56 -14 61 -18 7z"/>
</g>
</svg>
